<svg width="120" height="120" viewBox="0 0 120 120" fill="none" xmlns="http://www.w3.org/2000/svg">
<path d="M60.5523 102.529C56.1445 102.568 51.7736 101.721 47.7 100.037C45.7779 99.2515 45.2029 98.914 43.0379 97.3645C40.8243 95.7772 40.1602 95.456 39.3288 94.584C35.7276 90.8047 33.9297 88.2942 31.0224 82.8141C29.5859 80.1033 28.3812 77.2758 27.4212 74.362L23.5582 62.6353C22.787 60.6789 22.8159 58.4978 23.6386 56.5625C24.4613 54.6272 26.0119 53.0929 27.9557 52.2907L29.076 51.8372C30.0457 51.437 31.085 51.2329 32.134 51.2366C33.183 51.2403 34.2209 51.4518 35.1877 51.8588C35.3551 51.929 35.5198 52.0046 35.6817 52.0829V26.1999C35.6817 23.76 36.651 21.4199 38.3763 19.6946C40.1016 17.9693 42.4417 17 44.8817 17C47.3216 17 49.6617 17.9693 51.387 19.6946C53.1123 21.4199 54.0816 23.76 54.0816 26.1999V38.1237C55.2485 37.5938 56.5146 37.3178 57.7961 37.3138H58.1066C59.76 37.3143 61.3818 37.7673 62.7961 38.6239C64.2104 39.4805 65.3632 40.7078 66.1295 42.173C67.2154 41.4908 68.4318 41.0429 69.7008 40.8581C70.9698 40.6733 72.2634 40.7555 73.4987 41.0996C74.7341 41.4437 75.8839 42.0421 76.8746 42.8563C77.8653 43.6706 78.675 44.6828 79.2518 45.8281C80.6452 44.9637 82.2444 44.4878 83.8836 44.4496C85.5229 44.4115 87.1425 44.8125 88.5745 45.6112C90.0066 46.4098 91.1989 47.577 92.0279 48.9916C92.857 50.4063 93.2925 52.017 93.2893 53.6567V73.7168C93.2836 81.3486 90.2504 88.6664 84.8555 94.0645C79.4605 99.4625 72.1443 102.5 64.5125 102.51C63.7809 102.51 63.0818 102.51 62.4042 102.51C61.7725 102.523 61.157 102.529 60.5523 102.529ZM43.4374 91.0773C48.8095 95.1002 55.3529 97.25 62.0641 97.1971H62.3637C63.0656 97.1971 63.7917 97.1971 64.553 97.1971C70.7654 97.19 76.7206 94.7158 81.1091 90.3187C85.4976 85.9216 87.9601 79.9616 87.9551 73.7492V53.7944C87.9695 52.7865 87.6076 51.8095 86.9401 51.0544C86.4936 50.566 85.9294 50.2002 85.3014 49.9919C84.6733 49.7836 84.0024 49.7397 83.3526 49.8646C82.7028 49.9894 82.0958 50.2787 81.5896 50.7048C81.0834 51.131 80.6949 51.6798 80.4612 52.2988C80.3455 52.6028 80.2693 52.9203 80.2345 53.2437C80.221 53.9941 80.2102 54.2884 80.2102 54.7608C80.2098 55.1857 80.1081 55.6045 79.9135 55.9822C79.719 56.36 79.4371 56.6859 79.0913 56.933C78.7456 57.18 78.3459 57.3411 77.9255 57.4027C77.505 57.4644 77.0759 57.4249 76.6738 57.2875C76.1457 57.1096 75.6876 56.769 75.3651 56.3146C75.0426 55.8602 74.8723 55.3153 74.8786 54.7581V50.1041C74.8931 49.0963 74.5312 48.1193 73.8636 47.3641C73.5018 46.9675 73.0611 46.6509 72.5697 46.4347C72.0783 46.2186 71.5471 46.1076 71.0102 46.1089C70.2295 46.1123 69.4678 46.3501 68.8238 46.7915C68.1798 47.2329 67.6832 47.8574 67.3983 48.5843C67.2626 48.9373 67.1798 49.3085 67.1526 49.6857C67.1526 50.5334 67.1526 54.3235 67.1526 54.7608C67.1518 55.1858 67.0497 55.6046 66.8548 55.9823C66.6599 56.36 66.3778 56.6859 66.0319 56.9329C65.686 57.1799 65.2862 57.3409 64.8656 57.4025C64.445 57.4642 64.0159 57.4248 63.6136 57.2875C63.0859 57.1098 62.6281 56.7696 62.3056 56.3157C61.9832 55.8618 61.8126 55.3175 61.8184 54.7608V46.3734C61.8184 45.389 61.4273 44.4448 60.7312 43.7487C60.0351 43.0526 59.091 42.6616 58.1066 42.6616H57.7961C56.8537 42.6609 55.9464 43.0187 55.2581 43.6623C54.5698 44.306 54.1521 45.1874 54.0897 46.1278C54.0897 47.0807 54.0897 54.1561 54.0897 54.7662C54.0899 55.1232 54.0183 55.4767 53.8792 55.8055C53.7401 56.1344 53.5363 56.4319 53.28 56.6804C53.0236 56.929 52.7199 57.1235 52.3869 57.2523C52.054 57.3812 51.6985 57.4418 51.3416 57.4306C50.6358 57.3903 49.9729 57.0787 49.4914 56.5611C49.01 56.0434 48.7473 55.3597 48.7582 54.6528V26.3187C48.7731 25.3283 48.4223 24.3671 47.7728 23.6192C47.4128 23.2152 46.9717 22.8917 46.4781 22.6698C45.9846 22.4479 45.4498 22.3326 44.9087 22.3315C42.749 22.3315 41.0214 24.178 41.0214 26.3484C41.0214 33.7478 41.0214 57.9111 41.0214 66.4659C41.021 66.8144 40.952 67.1594 40.8183 67.4812C40.6846 67.803 40.4889 68.0953 40.2422 68.3415C39.9956 68.5876 39.7028 68.7828 39.3807 68.9158C39.0587 69.0489 38.7135 69.1172 38.365 69.1168C37.6619 69.1168 36.9871 68.8392 36.4876 68.3442C35.9882 67.8493 35.7043 67.1771 35.6979 66.474L35.6331 62.4625C35.6196 61.3358 35.3924 60.2219 34.9637 59.1799L34.61 58.3215C34.372 57.7109 33.928 57.2029 33.3547 56.8853C33.0089 56.7019 32.6268 56.5971 32.2357 56.5784C31.8447 56.5598 31.4543 56.6277 31.0926 56.7773L29.9723 57.2308C29.3263 57.5001 28.8119 58.0122 28.5398 58.6569C28.2677 59.3017 28.2596 60.0275 28.5172 60.6781C28.5415 60.7348 28.5766 60.8293 28.5955 60.886L32.4855 72.6937C33.3568 75.3347 34.4513 77.8968 35.7573 80.3522C38.303 85.1519 39.2964 86.6879 42.0391 89.6763C42.1849 89.8383 42.3387 89.9948 42.4926 90.1487C42.776 90.4403 43.3159 90.9856 43.4374 91.0773Z" fill="#054EA1"/>
<path d="M76.5038 73.0796C76.2514 73.0791 76.0011 73.0344 75.7642 72.9474C70.411 70.9848 66.1728 72.7827 65.8516 72.9015C64.7394 73.3172 63.584 73.2767 63.8512 72.1213C63.997 71.4923 66.0108 69.5055 68.8075 68.4743C70.5271 67.8372 73.7935 66.8546 77.3083 68.5067C78.3881 69.0115 78.928 70.5556 78.5204 71.6705C78.3676 72.0827 78.0927 72.4385 77.7324 72.6903C77.372 72.9421 76.9434 73.0779 76.5038 73.0796Z" fill="#054EA1"/>
<path d="M57.186 84.8415C57.8474 84.9414 59.7424 85.3004 59.9962 85.3436C65.4357 86.2911 67.7006 83.8049 68.6346 83.076C69.5687 82.3472 70.5567 82.9977 70.5027 84.1828C70.4757 84.828 69.1772 86.8067 66.9744 88.251C65.4411 89.2579 61.3594 90.1406 57.8906 89.1472C54.9805 88.305 52.9289 86.6421 53.52 85.1546C53.9925 83.9858 55.7175 84.6201 57.186 84.8415Z" fill="#054EA1"/>
<path d="M51.7736 78.3167C54.7629 78.3167 57.1861 75.5429 57.1861 72.1213C57.1861 68.6997 54.7629 65.9259 51.7736 65.9259C48.7844 65.9259 46.3611 68.6997 46.3611 72.1213C46.3611 75.5429 48.7844 78.3167 51.7736 78.3167Z" fill="#054EA1"/>
</svg>
