<svg width="144" height="39" viewBox="0 0 144 39" fill="none" xmlns="http://www.w3.org/2000/svg">
<path d="M12.0444 18.0892V28.1706C12.0444 30.3917 14.1545 30.4251 16.7913 29.8843L18.7197 36.5141C8.64979 40.0872 3.99528 36.0674 4.18935 28.1706V18.0892H0V11.5931H4.18935V6.68603L12.0444 4.36166V11.5931H17.0932V18.0892H12.0444Z" fill="white"/>
<path d="M48.2272 11.5931V37.4195H40.3753V34.9888C38.6472 36.9516 36.0812 38.1396 32.5726 38.1396C25.7125 38.1396 20.0569 32.1995 20.0569 24.5033C20.0569 16.807 25.7125 10.8699 32.5726 10.8699C36.0812 10.8699 38.6472 12.0579 40.3753 14.0208V11.59L48.2272 11.5931ZM40.3753 24.5033C40.3753 20.6293 37.7569 18.2016 34.1436 18.2016C30.5303 18.2016 27.9119 20.6323 27.9119 24.5033C27.9119 28.3742 30.5303 30.8049 34.1436 30.8049C37.7569 30.8049 40.3753 28.3772 40.3753 24.5033Z" fill="white"/>
<path d="M79.1203 21.559V37.4165H71.2684V22.6954C71.2684 19.4929 69.2261 17.995 66.7125 17.995C63.8323 17.995 61.8423 19.6479 61.8423 23.3152V37.4165H53.9873V11.59H61.8423V14.0208C63.2593 12.1096 65.8746 10.8699 69.3308 10.8699C74.6168 10.8699 79.1203 14.5859 79.1203 21.559Z" fill="white"/>
<path d="M63.7279 8.33888H57.4438C57.4438 -0.493763 62.9424 -1.42351 67.7078 1.46905C69.4882 2.55376 69.9596 2.2955 69.9596 0.229386H76.2436C76.2436 9.06203 70.7451 9.99178 65.9797 7.09922C64.1992 6.00844 63.7279 6.27276 63.7279 8.33888Z" fill="white"/>
<path d="M111.379 1.2625V37.4195H103.523V34.9888C101.795 36.9516 99.2294 38.1396 95.7208 38.1396C88.8607 38.1396 83.2051 32.1995 83.2051 24.5033C83.2051 16.807 88.8607 10.8699 95.7208 10.8699C99.2294 10.8699 101.795 12.058 103.523 14.0208V1.25946L111.379 1.2625ZM103.523 24.5033C103.523 20.6293 100.905 18.2016 97.2918 18.2016C93.6785 18.2016 91.0601 20.6323 91.0601 24.5033C91.0601 28.3742 93.6785 30.8049 97.2918 30.8049C100.905 30.8049 103.523 28.3772 103.523 24.5033Z" fill="white"/>
<path d="M144 11.5931V37.4195H136.145V34.9888C134.417 36.9516 131.851 38.1396 128.342 38.1396C121.482 38.1396 115.826 32.1995 115.826 24.5033C115.826 16.807 121.479 10.8699 128.342 10.8699C131.851 10.8699 134.417 12.0579 136.145 14.0208V11.59L144 11.5931ZM136.145 24.5033C136.145 20.6293 133.526 18.2016 129.913 18.2016C126.3 18.2016 123.681 20.6323 123.681 24.5033C123.681 28.3742 126.3 30.8049 129.913 30.8049C133.526 30.8049 136.145 28.3772 136.145 24.5033Z" fill="white"/>
</svg>
