<svg width="144" height="41" viewBox="0 0 144 41" fill="none" xmlns="http://www.w3.org/2000/svg">
<path d="M17.8194 40.1108C15.7277 40.1295 13.6536 39.7336 11.72 38.9467C10.8084 38.5775 10.5366 38.4214 9.50825 37.6942C8.47996 36.967 8.14252 36.8014 7.74911 36.3928C6.03955 34.6277 5.19036 33.4494 3.80704 30.8845C3.126 29.6155 2.55466 28.2921 2.09908 26.9284L0.266372 21.4406C-0.100397 20.526 -0.0879788 19.5058 0.300949 18.6001C0.689878 17.6945 1.42414 16.9759 2.34535 16.5995L2.87789 16.3865C3.33795 16.1993 3.83105 16.1039 4.32871 16.1058C4.82636 16.1077 5.31871 16.2069 5.77728 16.3976C5.85724 16.4291 5.9372 16.4654 6.01236 16.5033V4.38875C6.00126 3.8164 6.10595 3.24761 6.32033 2.71565C6.5347 2.18368 6.85446 1.69921 7.26089 1.29057C7.66733 0.881932 8.15228 0.557325 8.6874 0.335729C9.22252 0.114134 9.79706 0 10.3774 0C10.9578 0 11.5323 0.114134 12.0675 0.335729C12.6026 0.557325 13.0875 0.881932 13.494 1.29057C13.9004 1.69921 14.2201 2.18368 14.4345 2.71565C14.6489 3.24761 14.7536 3.8164 14.7425 4.38875V9.96805C15.2958 9.7235 15.8953 9.59717 16.5016 9.59736H16.6488C17.4362 9.59537 18.2091 9.80693 18.8829 10.2089C19.5567 10.6109 20.1055 11.1879 20.4693 11.8767C21.3052 11.3549 22.2963 11.1295 23.2794 11.2376C24.2625 11.3457 25.179 11.7809 25.8778 12.4714C26.2092 12.7978 26.4857 13.1743 26.6966 13.5866C27.3573 13.1822 28.1156 12.9593 28.893 12.9412C29.6703 12.923 30.4385 13.1101 31.1178 13.4832C31.7972 13.8563 32.3631 14.4018 32.7568 15.0632C33.1506 15.7245 33.3579 16.4777 33.3574 17.2446V26.6334C33.3536 30.2043 31.9139 33.6279 29.3541 36.1531C26.7943 38.6782 23.3235 40.0987 19.7033 40.1029C19.3557 40.1029 19.0225 40.1029 18.7038 40.1029L17.8194 40.1108ZM9.69856 34.7476C12.2485 36.6285 15.3535 37.6325 18.5374 37.6059H18.6798C19.0124 37.6059 19.3578 37.6059 19.7177 37.6059C22.6654 37.6025 25.4912 36.4446 27.5737 34.3867C29.6561 32.3288 30.8247 29.5394 30.8226 26.6318V17.303C30.8302 16.8315 30.6592 16.3742 30.3429 16.0206C30.1043 15.7644 29.796 15.5814 29.4548 15.4934C29.1136 15.4054 28.7539 15.416 28.4187 15.5241C28.0835 15.6322 27.787 15.8332 27.5644 16.103C27.3419 16.3729 27.2027 16.7002 27.1636 17.0459C27.1636 17.3961 27.154 17.5333 27.154 17.7541C27.1518 17.9525 27.1022 18.1475 27.0092 18.3234C26.9163 18.4993 26.7826 18.6511 26.619 18.7665C26.4554 18.8819 26.2666 18.9576 26.0678 18.9875C25.869 19.0175 25.6659 19.0008 25.4748 18.9388C25.2242 18.8553 25.0068 18.6957 24.8537 18.4829C24.7006 18.2701 24.6197 18.0151 24.6225 17.7541V17.7541V15.5757C24.6301 15.1042 24.459 14.6469 24.1427 14.2933C23.971 14.108 23.762 13.9601 23.529 13.859C23.2961 13.758 23.0443 13.706 22.7898 13.7065C22.4193 13.7081 22.0579 13.8192 21.7523 14.0257C21.4466 14.2321 21.2108 14.5242 21.0754 14.8643C21.0119 15.0299 20.9726 15.2036 20.9587 15.3801C20.9587 15.7777 20.9587 17.5507 20.9587 17.7463C20.9585 17.9453 20.9102 18.1415 20.8179 18.3185C20.7255 18.4955 20.5917 18.6482 20.4276 18.764C20.2634 18.8798 20.0736 18.9554 19.874 18.9844C19.6743 19.0134 19.4705 18.9951 19.2795 18.9309C19.029 18.8473 18.8118 18.6877 18.659 18.4749C18.5062 18.2621 18.4255 18.007 18.4287 17.7463V13.8311C18.4287 13.3709 18.2434 12.9296 17.9135 12.6042C17.5835 12.2788 17.1361 12.096 16.6695 12.096H16.5224C16.0752 12.095 15.6443 12.2622 15.3175 12.5634C14.9907 12.8646 14.7926 13.2773 14.7633 13.7176C14.7633 14.164 14.7633 17.4765 14.7633 17.7573C14.7636 17.9244 14.7298 18.09 14.6639 18.244C14.598 18.398 14.5014 18.5373 14.3798 18.6537C14.2582 18.7702 14.1141 18.8612 13.9561 18.9216C13.798 18.9819 13.6293 19.0103 13.4599 19.005C13.1249 18.9863 12.8103 18.8407 12.5817 18.5984C12.3531 18.3562 12.2282 18.0362 12.2333 17.7052V4.44395C12.2402 3.98099 12.074 3.53175 11.7663 3.18202C11.5953 2.9932 11.3858 2.84198 11.1516 2.73817C10.9175 2.63436 10.6638 2.58028 10.407 2.57946C9.91017 2.589 9.43734 2.79211 9.09184 3.14442C8.74635 3.49674 8.55626 3.96961 8.56312 4.45973V23.2309C8.56312 23.3941 8.53051 23.5556 8.46716 23.7064C8.40381 23.8571 8.31096 23.994 8.19392 24.1093C8.07688 24.2246 7.93794 24.316 7.78506 24.3783C7.63218 24.4406 7.46834 24.4725 7.30293 24.4723V24.4723C6.96909 24.4723 6.64878 24.3422 6.41183 24.1102C6.17487 23.8783 6.04048 23.5633 6.03795 23.2341L5.99477 21.3585C5.9875 20.8316 5.87897 20.3108 5.67493 19.8237L5.51501 19.4215C5.40241 19.1353 5.19121 18.8974 4.9185 18.7495C4.7545 18.6636 4.57332 18.6143 4.38785 18.6053C4.20238 18.5964 4.01717 18.6278 3.84542 18.6974L3.31448 18.9104C3.0078 19.0363 2.76352 19.276 2.6343 19.5778C2.50507 19.8796 2.50124 20.2195 2.62362 20.5241C2.63754 20.5561 2.64982 20.5887 2.6604 20.6219L4.5075 26.1428C4.92036 27.3785 5.43877 28.5774 6.05714 29.7267C7.26455 31.9745 7.73632 32.6938 9.03808 34.093C9.10845 34.1671 9.18041 34.2412 9.25398 34.3122C9.38991 34.451 9.64578 34.7097 9.69856 34.7492V34.7476ZM9.56422 34.6529L9.57222 34.6608L9.56422 34.6529Z" fill="#054EA1"/>
<path d="M25.3866 26.329C25.2672 26.3285 25.1487 26.3077 25.0364 26.2674C23.5229 25.6992 21.852 25.6913 20.3331 26.2453C19.8053 26.4409 19.2568 26.422 19.3848 25.881C19.4535 25.586 20.4131 24.6553 21.7356 24.1726C22.5528 23.8761 24.1008 23.4202 25.7688 24.19C26.279 24.425 26.5381 25.1475 26.3445 25.6696C26.2725 25.863 26.142 26.0299 25.9707 26.1479C25.7994 26.2658 25.5955 26.329 25.3866 26.329V26.329Z" fill="#054EA1"/>
<path d="M16.2226 31.8325C16.5424 31.8798 17.4348 32.0486 17.5563 32.0691C20.1358 32.5124 21.2121 31.3482 21.6599 31.0075C22.1077 30.6668 22.5714 30.9713 22.5459 31.5265C22.5315 31.8278 21.9158 32.7537 20.8715 33.4304C20.1438 33.9037 18.2056 34.3185 16.5536 33.8484C15.1735 33.4557 14.1995 32.6764 14.4746 31.9808C14.7129 31.4334 15.5269 31.73 16.2226 31.8325Z" fill="#054EA1"/>
<path d="M13.6538 28.7802C15.0723 28.7802 16.2221 27.4821 16.2221 25.8809C16.2221 24.2797 15.0723 22.9816 13.6538 22.9816C12.2353 22.9816 11.0854 24.2797 11.0854 25.8809C11.0854 27.4821 12.2353 28.7802 13.6538 28.7802Z" fill="#054EA1"/>
<path d="M51.4819 19.3678V26.4363C51.4819 27.9935 52.9613 28.017 54.8101 27.6378L56.1621 32.2862C49.1018 34.7914 45.8383 31.973 45.9744 26.4363V19.3678H43.0371V14.8132H45.9744V11.3727L51.4819 9.74301V14.8132H55.0217V19.3678H51.4819Z" fill="black"/>
<path d="M76.8508 14.8132V32.921H71.3455V31.2167C70.1339 32.5929 68.3348 33.4259 65.8748 33.4259C61.065 33.4259 57.0996 29.2611 57.0996 23.865C57.0996 18.4688 61.065 14.3062 65.8748 14.3062C68.3348 14.3062 70.1339 15.1391 71.3455 16.5153V14.8111L76.8508 14.8132ZM71.3455 23.865C71.3455 21.1488 69.5097 19.4467 66.9763 19.4467C64.4429 19.4467 62.6071 21.1509 62.6071 23.865C62.6071 26.579 64.4429 28.2833 66.9763 28.2833C69.5097 28.2833 71.3455 26.5811 71.3455 23.865Z" fill="black"/>
<path d="M98.5113 21.8007V32.9189H93.006V22.5974C93.006 20.352 91.5741 19.3018 89.8117 19.3018C87.7923 19.3018 86.3971 20.4607 86.3971 23.032V32.9189H80.8896V14.8111H86.3971V16.5153C87.3906 15.1753 89.2242 14.3062 91.6475 14.3062C95.3537 14.3062 98.5113 16.9116 98.5113 21.8007Z" fill="black"/>
<path d="M87.7187 12.5316H83.3127C83.3127 6.33871 87.168 5.68683 90.5091 7.71491C91.7575 8.47544 92.0879 8.29436 92.0879 6.84574H96.4939C96.4939 13.0386 92.6387 13.6905 89.2975 11.6624C88.0491 10.8976 87.7187 11.083 87.7187 12.5316Z" fill="#054EA1"/>
<path d="M121.129 7.57055V32.9215H115.621V31.2172C114.41 32.5934 112.61 33.4264 110.15 33.4264C105.341 33.4264 101.375 29.2616 101.375 23.8654C101.375 18.4693 105.341 14.3067 110.15 14.3067C112.61 14.3067 114.41 15.1396 115.621 16.5158V7.56842L121.129 7.57055ZM115.621 23.8654C115.621 21.1493 113.785 19.4471 111.252 19.4471C108.718 19.4471 106.883 21.1514 106.883 23.8654C106.883 26.5795 108.718 28.2837 111.252 28.2837C113.785 28.2837 115.621 26.5816 115.621 23.8654Z" fill="black"/>
<path d="M144 14.8132V32.921H138.493V31.2167C137.281 32.5929 135.482 33.4259 133.022 33.4259C128.212 33.4259 124.247 29.2611 124.247 23.865C124.247 18.4688 128.21 14.3062 133.022 14.3062C135.482 14.3062 137.281 15.1391 138.493 16.5153V14.8111L144 14.8132ZM138.493 23.865C138.493 21.1488 136.657 19.4467 134.124 19.4467C131.59 19.4467 129.754 21.1509 129.754 23.865C129.754 26.579 131.59 28.2833 134.124 28.2833C136.657 28.2833 138.493 26.5811 138.493 23.865Z" fill="black"/>
</svg>
