<svg width="30" height="40" viewBox="0 0 30 40" fill="none" xmlns="http://www.w3.org/2000/svg">
<path d="M0.5 36V4C0.5 2.067 2.067 0.5 4 0.5H17.9C18.7987 0.5 19.663 0.845712 20.3138 1.46552L28.4138 9.1798C29.1074 9.8404 29.5 10.7564 29.5 11.7143V36C29.5 37.933 27.933 39.5 26 39.5H4C2.067 39.5 0.5 37.933 0.5 36Z" fill="white" stroke="#E5E9EB"/>
<path d="M17.5312 11.5625H9.9375C9.00476 11.5625 8.25 12.3173 8.25 13.25V26.75C8.25 27.6827 9.00476 28.4375 9.9375 28.4375H20.0625C20.9952 28.4375 21.75 27.6827 21.75 26.75V15.7812L17.5312 11.5625ZM12.4688 18.3125C12.9335 18.3125 13.3125 18.6915 13.3125 19.1562C13.3125 19.621 12.9335 20 12.4688 20C12.004 20 11.625 19.621 11.625 19.1562C11.625 18.6915 12.004 18.3125 12.4688 18.3125ZM10.7813 24.2188L13.3125 20.8438L15 22.5312L16.6875 20L19.2188 24.2188H10.7813Z" fill="#FFA718"/>
</svg>
