<svg width="30" height="40" viewBox="0 0 30 40" fill="none" xmlns="http://www.w3.org/2000/svg">
<path d="M0.5 36V4C0.5 2.067 2.067 0.5 4 0.5H17.9C18.7987 0.5 19.663 0.845712 20.3138 1.46552L28.4138 9.1798C29.1074 9.8404 29.5 10.7564 29.5 11.7143V36C29.5 37.933 27.933 39.5 26 39.5H4C2.067 39.5 0.5 37.933 0.5 36Z" fill="white" stroke="#E5E9EB"/>
<path fill-rule="evenodd" clip-rule="evenodd" d="M9.9375 11.5625H17.5313L21.75 15.7813V26.75C21.75 27.6827 20.9952 28.4375 20.0625 28.4375H9.9375C9.00476 28.4375 8.25 27.6827 8.25 26.75V13.25C8.25 12.3173 9.00476 11.5625 9.9375 11.5625ZM10.2473 22.5543H11.0746C11.9579 22.5543 12.5742 21.9742 12.5742 21.1107C12.5742 20.2406 11.9843 19.6605 11.1207 19.6605H9.37061V23.8562H10.2473V22.5543ZM13.3817 23.8562H15.033C16.2887 23.8562 17.0006 23.0916 17.0006 21.7271C17.0006 20.412 16.2788 19.6572 15.033 19.6572H13.3817V23.8562ZM18.7079 20.412H20.5767V19.6605H17.8312V23.8562H18.7079V22.2247H20.4152V21.5062H18.7079V20.412ZM10.8875 20.3824H10.2481V21.8425H10.8842C11.3885 21.8425 11.6819 21.5854 11.6819 21.1174C11.6819 20.6362 11.3951 20.3824 10.8875 20.3824ZM14.8896 20.4086H14.2568V23.1047H14.8896C15.6641 23.1047 16.1025 22.6268 16.1025 21.7402C16.1025 20.8931 15.6509 20.4086 14.8896 20.4086Z" fill="#B30B00"/>
</svg>
