<svg width="30" height="40" viewBox="0 0 30 40" fill="none" xmlns="http://www.w3.org/2000/svg">
<path d="M0.5 36V4C0.5 2.067 2.067 0.5 4 0.5H17.9C18.7987 0.5 19.663 0.845712 20.3138 1.46552L28.4138 9.1798C29.1074 9.8404 29.5 10.7564 29.5 11.7143V36C29.5 37.933 27.933 39.5 26 39.5H4C2.067 39.5 0.5 37.933 0.5 36Z" fill="white" stroke="#E5E9EB"/>
<path d="M21.75 16.072V27.2379C21.75 27.8384 21.212 28.325 20.5492 28.325H9.45076C8.78749 28.325 8.25 27.8384 8.25 27.2379V12.5371C8.24996 11.9366 8.78745 11.45 9.45076 11.45H16.6447L21.75 16.072Z" fill="#28B446"/>
<path d="M17.8517 19.963H12.148C11.9434 19.963 11.7776 20.1288 11.7776 20.3334V25.2963C11.7776 25.5009 11.9434 25.6667 12.148 25.6667H17.8517C18.0563 25.6667 18.2221 25.5009 18.2221 25.2963V20.3334C18.2221 20.1288 18.0563 19.963 17.8517 19.963ZM12.5184 22.3443H14.6294V23.2855H12.5184V22.3443ZM15.3702 22.3443H17.4813V23.2855H15.3702V22.3443ZM17.4813 21.6035H15.3703V20.7038H17.4813V21.6035ZM14.6294 20.7038V21.6035H12.5184V20.7038H14.6294ZM12.5184 24.0263H14.6294V24.926H12.5184V24.0263ZM15.3702 24.926V24.0263H17.4813V24.926H15.3702Z" fill="white"/>
</svg>
