<svg width="30" height="40" viewBox="0 0 30 40" fill="none" xmlns="http://www.w3.org/2000/svg">
<path d="M0.5 36V4C0.5 2.067 2.067 0.5 4 0.5H17.9C18.7987 0.5 19.663 0.845712 20.3138 1.46552L28.4138 9.1798C29.1074 9.8404 29.5 10.7564 29.5 11.7143V36C29.5 37.933 27.933 39.5 26 39.5H4C2.067 39.5 0.5 37.933 0.5 36Z" fill="white" stroke="#E5E9EB"/>
<path d="M17.5312 11.5625H9.9375C9.00476 11.5625 8.25 12.3173 8.25 13.25V26.75C8.25 27.6827 9.00476 28.4375 9.9375 28.4375H20.0625C20.9952 28.4375 21.75 27.6827 21.75 26.75V15.7812L17.5312 11.5625ZM15 24.2187H10.7813V23.375H15V24.2187ZM19.2187 21.6875H10.7813V20.8437H19.2187V21.6875ZM19.2187 19.1562H10.7813V18.3125H19.2187V19.1562Z" fill="#4285F4"/>
</svg>
